<svg xmlns="http://www.w3.org/2000/svg" fill="white" viewBox="0 0 24 24">
<path d="M12 0C5.4 0 0 5.4 0 12c0 5.3 3.4 9.8 8.2 11.4.6.1.8-.3.8-.6v-2c-3.3.7-4-1.4-4-1.4-.5-1.2-1.2-1.5-1.2-1.5-1-.7.1-.7.1-.7 1.1.1 1.7 1.1 1.7 1.1 1 .1.6 2.2 2.9 1.6.1-.7.4-1.2.7-1.5-2.7-.3-5.6-1.3-5.6-6 0-1.3.5-2.3 1.2-3.1-.1-.3-.5-1.5.1-3.1 0 0 1-.3 3.3 1.2.9-.2 1.9-.3 2.9-.3s2 .1 2.9.3c2.3-1.5 3.3-1.2 3.3-1.2.6 1.6.2 2.8.1 3.1.8.8 1.2 1.8 1.2 3.1 0 4.7-2.9 5.7-5.6 6 .4.3.8 1 .8 2v3c0 .3.2.7.8.6C20.6 21.8 24 17.3 24 12c0-6.6-5.4-12-12-12z"></path>
</svg>